<?xml version="1.0" standalone="no"?>
<!DOCTYPE svg PUBLIC "-//W3C//DTD SVG 20010904//EN"
 "http://www.w3.org/TR/2001/REC-SVG-20010904/DTD/svg10.dtd">
<svg version="1.0" xmlns="http://www.w3.org/2000/svg"
 width="380.000000pt" height="380.000000pt" viewBox="0 0 380.000000 380.000000"
 preserveAspectRatio="xMidYMid meet">
<metadata>
Created by potrace 1.14, written by Peter Selinger 2001-2017
</metadata>
<g transform="translate(0.000000,380.000000) scale(0.100000,-0.100000)"
fill="#000000" stroke="none">
<path d="M1673 3784 c-1171 -142 -1931 -1308 -1588 -2437 135 -448 438 -834
845 -1079 336 -202 760 -297 1151 -258 358 37 686 165 972 382 105 79 276 250
355 355 372 492 485 1120 307 1706 -266 879 -1130 1442 -2042 1331z m519 -585
c271 -54 497 -178 691 -378 248 -256 377 -572 377 -927 0 -644 -469 -1200
-1103 -1308 -125 -22 -333 -22 -452 -1 -767 135 -1256 895 -1060 1650 136 523
599 923 1140 985 110 12 290 3 407 -21z"/>
<path d="M1560 2274 c-105 -21 -140 -44 -140 -93 0 -32 12 -45 53 -55 32 -8
58 -59 243 -470 49 -109 100 -209 113 -222 28 -29 94 -33 129 -8 14 10 90 150
193 357 94 188 175 347 180 353 5 6 25 14 45 17 47 8 64 23 64 58 0 51 -35 64
-180 64 -100 0 -131 -4 -157 -17 -48 -27 -53 -56 -14 -88 20 -17 31 -36 31
-52 0 -29 -90 -217 -113 -237 -29 -23 -47 -4 -93 96 -60 128 -64 154 -29 177
21 14 26 24 23 49 -5 52 -54 70 -202 73 -67 1 -132 0 -146 -2z"/>
</g>
</svg>
